<?xml version="1.0" standalone="no"?>
<!DOCTYPE svg PUBLIC "-//W3C//DTD SVG 20010904//EN"
 "http://www.w3.org/TR/2001/REC-SVG-20010904/DTD/svg10.dtd">
<svg version="1.0" xmlns="http://www.w3.org/2000/svg"
 width="600.000000pt" height="402.000000pt" viewBox="0 0 600.000000 402.000000"
 preserveAspectRatio="xMidYMid meet">

<g transform="translate(0.000000,402.000000) scale(0.100000,-0.100000)"
fill="#000000" stroke="none">
<path d="M3110 2660 c0 -34 3 -40 20 -40 40 0 169 -31 217 -52 39 -17 107 -60
178 -112 11 -9 65 28 65 45 0 15 -127 103 -195 135 -73 35 -183 64 -247 64
-38 0 -38 0 -38 -40z"/>
<path d="M2932 2535 c-163 -52 -291 -176 -352 -340 -31 -83 -38 -228 -16 -315
24 -94 68 -177 129 -245 175 -192 467 -234 692 -100 33 20 71 47 84 60 l25 24
-24 26 c-13 14 -27 25 -32 25 -4 0 -27 -15 -50 -33 -188 -143 -450 -125 -619
43 -254 252 -132 694 216 785 143 37 312 -2 418 -95 l34 -29 28 29 c34 35 30
43 -56 101 -132 90 -321 115 -477 64z"/>
<path d="M2568 2461 c-50 -59 -97 -141 -126 -223 -24 -66 -26 -86 -26 -223 -1
-137 2 -156 26 -226 30 -85 73 -163 125 -227 l36 -44 30 31 31 30 -32 40
c-114 142 -163 335 -127 511 19 99 68 207 120 267 30 36 34 45 24 61 -7 10
-20 24 -30 30 -15 10 -23 5 -51 -27z"/>
<path d="M3031 2419 c-132 -22 -244 -109 -304 -237 -29 -61 -32 -75 -32 -167
0 -96 1 -103 39 -178 63 -126 174 -207 307 -226 l60 -8 -3 40 c-3 40 -3 41
-58 52 -75 15 -128 45 -179 100 -64 70 -86 124 -86 220 0 116 42 197 137 268
40 29 117 58 157 59 19 1 31 7 33 17 5 22 -3 71 -11 70 -3 -1 -30 -5 -60 -10z"/>
<path d="M3475 1530 c-27 -22 -78 -53 -112 -69 -57 -28 -185 -61 -233 -61 -17
0 -20 -6 -20 -41 l0 -42 71 7 c77 7 186 41 257 81 61 34 130 86 137 104 5 13
-30 61 -44 61 -3 0 -28 -18 -56 -40z"/>
</g>
</svg>
